<svg width="513" height="480" viewBox="0 0 513 480" fill="none" xmlns="http://www.w3.org/2000/svg">
<path d="M232.796 156.39C230.117 153.824 227.377 139.513 223.957 138.06C226.514 143.702 224.657 145.195 224.644 151.386C224.676 154.902 224.265 158.408 223.42 161.821H165.484V116.676C165.484 112.619 166.284 108.603 167.839 104.855C169.393 101.107 171.672 97.7022 174.545 94.8339C177.417 91.9656 180.828 89.6904 184.581 88.1381C188.335 86.5859 192.358 85.787 196.42 85.7871C197.971 85.8173 199.511 86.0425 201.006 86.4574C205.985 87.7998 210.524 90.426 214.167 94.0727C217.809 97.7194 220.427 102.258 221.757 107.234C226.174 123.353 233.199 150.184 232.796 156.39Z" fill="#2F2E41"/>
<path d="M168.884 211.927L168.912 176.739L148.196 178.587L155.507 200.78L152.085 256.563C150.426 256.934 148.91 257.78 147.724 258.997C146.538 260.214 145.731 261.749 145.404 263.416C145.076 265.082 145.241 266.808 145.879 268.382C146.517 269.956 147.599 271.311 148.995 272.282C150.391 273.253 152.039 273.797 153.739 273.848C155.439 273.9 157.117 273.456 158.569 272.572C160.021 271.687 161.184 270.4 161.916 268.867C162.648 267.334 162.917 265.622 162.691 263.938L168.884 211.927Z" fill="#FFB6B6"/>
<path d="M209.653 463.38L218.022 463.379L222.003 431.147H209.65L209.653 463.38Z" fill="#FFB6B6"/>
<path d="M206.818 459.257L220.048 458.469V464.128L232.627 472.802C233.248 473.23 233.716 473.846 233.962 474.558C234.209 475.271 234.22 476.044 233.996 476.763C233.771 477.483 233.322 478.112 232.713 478.559C232.105 479.006 231.37 479.247 230.615 479.246H214.864L212.149 473.648L211.089 479.246H205.15L206.818 459.257Z" fill="#2F2E41"/>
<path d="M161.259 463.38L169.629 463.379L173.61 431.147H161.258L161.259 463.38Z" fill="#FFB6B6"/>
<path d="M170.461 458.835L156.321 458V463.993L142.878 473.176C142.214 473.63 141.714 474.282 141.451 475.036C141.187 475.791 141.175 476.609 141.415 477.371C141.655 478.133 142.135 478.799 142.785 479.272C143.435 479.745 144.221 480 145.028 480H161.862L164.764 474.072L165.897 480H172.244L170.461 458.835Z" fill="#2F2E41"/>
<path d="M202.199 138.739L184.861 139.078L172.623 151.977L162.811 153.414C158.373 154.064 154.292 156.215 151.252 159.508C148.211 162.801 146.395 167.037 146.106 171.507L147.806 180.829H158.005L163.905 215.417C161.61 221.254 161.454 225.861 166.164 227.671L180.782 255.165L223.957 235.818C226.146 232.059 226.848 228.284 224.61 224.613L227.696 171.664H238.074C238.074 161.761 234.72 153.413 224.863 152.311C220.948 151.888 217.015 151.663 213.078 151.638L202.199 138.739Z" fill="#E6E6E6"/>
<path d="M223.957 235.818C223.957 235.818 181.802 243.285 166.164 227.671C166.164 227.671 164.576 230.363 162.184 234.826C161.496 236.109 160.167 236.979 159.365 238.533C158.635 239.946 156.759 241.683 155.965 243.286C155.326 244.575 156.351 246.26 155.686 247.653C147.678 264.425 138.321 288.083 140.327 303.705C141.62 313.779 144.292 337.222 147.106 362.4C147.326 364.367 145.545 366.894 145.766 368.877C145.975 370.746 148.185 372.071 148.393 373.946C148.531 375.19 146.988 376.459 147.126 377.702C147.277 379.066 149.11 380.402 149.261 381.761C153.116 416.526 156.645 448.984 156.645 448.984H176.363L180.083 374.853L177.043 347.832L184.182 293.183L194.041 345.116L195.309 374.345L205.728 450.341H223.957V376.772L225.317 372.95L223.957 368.048L225.317 362.767L223.957 357.015V235.818Z" fill="#2F2E41"/>
<path d="M207.521 128.7C204.835 132.262 201.015 134.805 196.688 135.91C192.362 137.014 187.788 136.614 183.719 134.777C179.651 132.939 176.33 129.772 174.305 125.798C172.279 121.825 171.67 117.281 172.576 112.915C173.483 108.549 175.851 104.622 179.292 101.779C182.733 98.9372 187.04 97.3497 191.506 97.2784C195.971 97.2071 200.327 98.6561 203.857 101.387C207.387 104.118 209.88 107.968 210.926 112.302C210.983 112.537 211.03 112.771 211.077 113.014C211.629 115.731 211.598 118.534 210.985 121.238C210.372 123.942 209.191 126.485 207.521 128.7Z" fill="#FFB6B6"/>
<path d="M203.423 117.504C203.006 115.415 201.952 113.506 200.404 112.039C200.557 114.041 200.279 116.053 199.589 117.939C194.42 118.396 189.228 117.369 184.624 114.979C181.156 112.63 176.743 112.833 171.603 114.979C171.603 112.482 172.095 110.01 173.052 107.704C174.008 105.398 175.41 103.302 177.178 101.537C178.946 99.7718 181.045 98.3717 183.355 97.4165C185.665 96.4614 188.141 95.9699 190.641 95.9702H194.04C199.089 95.9711 203.931 97.9741 207.501 101.539C211.071 105.103 213.077 109.938 213.078 114.979C209.941 116.102 206.71 116.947 203.423 117.504Z" fill="#2F2E41"/>
<path d="M54.6928 359.773C84.8988 359.773 109.386 335.324 109.386 305.165C109.386 275.005 84.8988 250.556 54.6928 250.556C24.4868 250.556 0 275.005 0 305.165C0 335.324 24.4868 359.773 54.6928 359.773Z" fill="#F0F0F0"/>
<path d="M403.226 109.217C433.432 109.217 457.918 84.7679 457.918 54.6085C457.918 24.449 433.432 0 403.226 0C373.02 0 348.533 24.449 348.533 54.6085C348.533 84.7679 373.02 109.217 403.226 109.217Z" fill="#F0F0F0"/>
<path d="M404.089 308.974C434.295 308.974 458.782 284.525 458.782 254.366C458.782 224.206 434.295 199.757 404.089 199.757C373.883 199.757 349.396 224.206 349.396 254.366C349.396 284.525 373.883 308.974 404.089 308.974Z" fill="#F0F0F0"/>
<path d="M501.887 60.5639V184.392C501.888 186.964 500.871 189.433 499.059 191.261C497.248 193.089 494.786 194.13 492.21 194.157C492.175 194.161 492.139 194.162 492.103 194.161H477.669C466.119 194.161 455.043 189.58 446.877 181.426C438.71 173.272 434.122 162.213 434.122 150.682V60.5638C434.122 57.9729 435.153 55.4882 436.988 53.6562C438.823 51.8241 441.311 50.7949 443.906 50.7949H449.755C447.045 58.6871 483.82 62.0098 485.839 50.7949H492.103C494.698 50.7949 497.187 51.8242 499.022 53.6562C500.856 55.4882 501.887 57.973 501.887 60.5639Z" fill="#BF1A33"/>
<path d="M459.052 41.5354C459.053 41.196 459.188 40.8706 459.428 40.6306C459.669 40.3905 459.994 40.2555 460.334 40.2551H469.054C469.393 40.2561 469.718 40.3914 469.958 40.6314C470.198 40.8714 470.332 41.1965 470.332 41.5354C470.332 41.8743 470.198 42.1994 469.958 42.4393C469.718 42.6793 469.393 42.8146 469.054 42.8156H460.334C459.994 42.8152 459.669 42.6802 459.428 42.4402C459.188 42.2002 459.053 41.8748 459.052 41.5354Z" fill="#3F3D56"/>
<path d="M495.099 209.868H439.96C435.682 209.863 431.581 208.164 428.556 205.144C425.531 202.124 423.829 198.029 423.824 193.757V107.196C423.521 106.979 423.275 106.693 423.105 106.362C422.935 106.031 422.846 105.664 422.847 105.292V96.5859C422.846 96.2138 422.935 95.847 423.105 95.5158C423.275 95.1847 423.521 94.8987 423.824 94.6818V92.3452C423.521 92.1283 423.275 91.8423 423.105 91.5112C422.935 91.18 422.846 90.8132 422.847 90.4411V81.735C422.846 81.3629 422.935 80.996 423.105 80.6649C423.275 80.3337 423.521 80.0478 423.824 79.8308V75.6079C423.45 75.4074 423.138 75.1093 422.921 74.7453C422.703 74.3814 422.589 73.9654 422.59 73.5417V64.8361C422.589 64.4123 422.703 63.9962 422.921 63.6322C423.138 63.2681 423.45 62.9699 423.824 62.7693V51.198C423.829 46.9267 425.531 42.8318 428.556 39.8115C431.581 36.7913 435.682 35.0924 439.96 35.0876H495.099C499.377 35.0925 503.478 36.7914 506.503 39.8116C509.528 42.8319 511.229 46.9268 511.234 51.1981V76.4209C511.525 76.6024 511.764 76.8547 511.931 77.154C512.097 77.4533 512.184 77.7899 512.184 78.1321V94.732C512.184 95.0743 512.097 95.4109 511.931 95.7103C511.764 96.0097 511.525 96.2621 511.234 96.4437V193.757C511.229 198.029 509.528 202.124 506.503 205.144C503.478 208.164 499.377 209.863 495.099 209.868ZM439.96 37.2292C436.251 37.2333 432.694 38.7064 430.071 41.3251C427.449 43.9439 425.973 47.4945 425.969 51.1981V64.5909L424.937 64.6306C424.884 64.6325 424.833 64.6549 424.795 64.6931C424.758 64.7314 424.736 64.7825 424.735 64.8361V73.5416C424.736 73.5951 424.758 73.6462 424.795 73.6844C424.833 73.7226 424.884 73.745 424.937 73.7471L425.969 73.7863V81.3344L425.153 81.5352C425.108 81.546 425.068 81.5716 425.038 81.6077C425.009 81.6438 424.993 81.6885 424.992 81.7349V90.4411C424.993 90.4875 425.009 90.5322 425.038 90.5683C425.068 90.6044 425.108 90.6299 425.153 90.6408L425.969 90.8416V96.1854L425.153 96.3861C425.108 96.397 425.068 96.4225 425.038 96.4586C425.009 96.4948 424.993 96.5395 424.992 96.5859V105.292C424.993 105.338 425.009 105.383 425.038 105.419C425.067 105.455 425.108 105.481 425.153 105.492L425.969 105.692V193.757C425.973 197.461 427.449 201.012 430.071 203.63C432.694 206.249 436.251 207.722 439.96 207.726H495.099C498.808 207.722 502.364 206.249 504.987 203.63C507.61 201.011 509.085 197.461 509.089 193.757V94.6101H510.039V78.2545H509.089V51.198C509.085 47.4945 507.61 43.944 504.987 41.3252C502.364 38.7064 498.808 37.2334 495.099 37.2291L439.96 37.2292Z" fill="#252525"/>
<path d="M473.926 42.8156C474.634 42.8156 475.208 42.2424 475.208 41.5354C475.208 40.8283 474.634 40.2551 473.926 40.2551C473.218 40.2551 472.644 40.8283 472.644 41.5354C472.644 42.2424 473.218 42.8156 473.926 42.8156Z" fill="#3F3D56"/>
<path d="M194.997 289.535H51.5226C49.4851 289.53 47.5325 288.719 46.0917 287.281C44.6509 285.843 43.839 283.893 43.8335 281.859V212.057C43.8387 210.023 44.6504 208.073 46.091 206.635C47.5316 205.196 49.4841 204.386 51.5215 204.38H194.996C197.033 204.385 198.986 205.196 200.427 206.634C201.868 208.073 202.679 210.022 202.685 212.056V281.858C202.68 283.892 201.868 285.842 200.427 287.28C198.987 288.719 197.034 289.529 194.997 289.535Z" fill="white"/>
<path d="M194.997 289.535H51.5226C49.4851 289.53 47.5325 288.719 46.0917 287.281C44.6509 285.843 43.839 283.893 43.8335 281.859V212.057C43.8387 210.023 44.6504 208.073 46.091 206.635C47.5316 205.196 49.4841 204.386 51.5215 204.38H194.996C197.033 204.385 198.986 205.196 200.427 206.634C201.868 208.073 202.679 210.022 202.685 212.056V281.858C202.68 283.892 201.868 285.842 200.427 287.28C198.987 288.719 197.034 289.529 194.997 289.535ZM51.5226 206.522C50.0533 206.526 48.6454 207.111 47.6066 208.148C46.5678 209.186 45.9824 210.591 45.9783 212.058V281.858C45.9826 283.325 46.5682 284.73 47.6072 285.768C48.6463 286.805 50.0543 287.389 51.5236 287.393H194.995C196.464 287.389 197.872 286.805 198.912 285.767C199.951 284.73 200.536 283.324 200.54 281.857V212.057C200.536 210.59 199.95 209.185 198.911 208.147C197.872 207.11 196.464 206.526 194.995 206.522L51.5226 206.522Z" fill="#252525"/>
<path d="M130.95 279.219C102.653 279.219 73.148 278.949 62.1393 278.774C60.6909 278.744 59.3115 278.15 58.2957 277.119C57.28 276.088 56.7082 274.701 56.7026 273.254V215.475C56.7032 214.957 56.9092 214.46 57.2756 214.093C57.6419 213.727 58.1389 213.52 58.6576 213.518H187.857C188.375 213.518 188.873 213.724 189.24 214.09C189.607 214.456 189.814 214.952 189.816 215.469V254.672C189.792 261.071 187.257 267.206 182.755 271.761C178.252 276.315 172.142 278.926 165.733 279.034C155.473 279.167 143.324 279.219 130.95 279.219Z" fill="#BF1A33"/>
<path d="M180.188 251.07H63.4462C62.4686 251.068 61.5156 250.765 60.7167 250.202C59.9178 249.64 59.3116 248.845 58.9806 247.927L45.7671 210.915C45.5125 210.201 45.4331 209.437 45.5357 208.686C45.6383 207.935 45.9198 207.22 46.3567 206.6C46.7935 205.98 47.3729 205.475 48.0462 205.125C48.7195 204.775 49.467 204.592 50.2259 204.59L196.151 204.387C196.845 204.387 197.53 204.538 198.159 204.83C198.788 205.123 199.344 205.549 199.79 206.08C200.236 206.611 200.56 207.233 200.739 207.902C200.918 208.571 200.947 209.271 200.826 209.953L200.939 210.001L200.52 210.977L200.515 210.987L184.542 248.201C184.178 249.053 183.571 249.779 182.797 250.289C182.023 250.8 181.115 251.071 180.188 251.07ZM196.158 206.529L50.2301 206.732C49.8143 206.733 49.4048 206.833 49.036 207.024C48.6671 207.216 48.3497 207.493 48.1104 207.832C47.871 208.172 47.7168 208.564 47.6606 208.975C47.6044 209.386 47.6478 209.805 47.7873 210.196L61.0002 247.207C61.1818 247.71 61.5141 248.145 61.952 248.453C62.3898 248.761 62.912 248.927 63.4477 248.929H180.188C180.695 248.929 181.192 248.781 181.616 248.501C182.039 248.222 182.371 247.825 182.57 247.358L198.544 210.143C198.714 209.748 198.782 209.318 198.744 208.891C198.706 208.464 198.562 208.052 198.326 207.694C198.089 207.336 197.767 207.042 197.389 206.839C197.01 206.635 196.587 206.529 196.158 206.529Z" fill="#252525"/>
<path d="M123.042 259.127C128.09 259.127 132.183 255.041 132.183 250C132.183 244.959 128.09 240.873 123.042 240.873C117.993 240.873 113.9 244.959 113.9 250C113.9 255.041 117.993 259.127 123.042 259.127Z" fill="white"/>
<path d="M468.357 179.891C473.406 179.891 477.498 175.805 477.498 170.764C477.498 165.723 473.406 161.637 468.357 161.637C463.308 161.637 459.216 165.723 459.216 170.764C459.216 175.805 463.308 179.891 468.357 179.891Z" fill="white"/>
<path d="M380.636 243.786L356.217 219.716C355.028 218.535 353.618 217.6 352.067 216.964C350.515 216.328 348.854 216.004 347.177 216.011H347.091C345.401 216.016 343.729 216.355 342.172 217.01C340.615 217.664 339.203 218.62 338.018 219.823C332.558 225.34 329.453 232.756 329.355 240.511C329.257 248.267 332.174 255.758 337.493 261.411C337.75 261.689 338.018 261.957 338.286 262.225C339.771 263.699 341.411 265.009 343.177 266.133C348.004 269.247 353.633 270.895 359.381 270.876H359.563C363.508 270.863 367.411 270.069 371.046 268.54C374.682 267.011 377.978 264.777 380.743 261.968C383.139 259.54 384.474 256.263 384.454 252.855C384.433 249.447 383.06 246.186 380.636 243.786ZM379.22 260.458C374.686 265.018 368.717 267.879 362.318 268.557C355.918 269.236 349.48 267.692 344.088 264.184C342.546 263.165 341.106 262 339.788 260.704C334.526 255.516 331.544 248.453 331.498 241.07C331.452 233.686 334.345 226.587 339.541 221.333C340.529 220.328 341.707 219.529 343.007 218.983C344.306 218.437 345.702 218.155 347.112 218.153H347.177C348.573 218.148 349.956 218.418 351.248 218.947C352.54 219.476 353.714 220.254 354.705 221.236L379.124 245.318C381.145 247.314 382.291 250.029 382.309 252.868C382.327 255.707 381.216 258.436 379.22 260.458Z" fill="#3F3D56"/>
<path d="M300.516 164.786L276.097 140.705C273.694 138.324 270.443 136.992 267.057 137H266.982C265.29 137.007 263.616 137.348 262.057 138.004C260.498 138.66 259.085 139.618 257.898 140.823C253.385 145.4 250.458 151.3 249.547 157.659C248.636 164.018 249.789 170.5 252.837 176.157L252.847 176.168C254.105 178.482 255.666 180.617 257.491 182.518C257.695 182.753 257.931 182.989 258.167 183.224C263.774 188.782 271.36 191.893 279.261 191.876H279.454C283.399 191.86 287.302 191.063 290.938 189.532C294.573 188.001 297.868 185.766 300.634 182.957C301.821 181.756 302.76 180.333 303.397 178.77C304.033 177.207 304.355 175.534 304.344 173.847C304.333 172.16 303.99 170.491 303.333 168.936C302.676 167.382 301.719 165.971 300.516 164.786ZM299.1 181.458C296.534 184.065 293.475 186.139 290.101 187.559C286.727 188.98 283.105 189.719 279.443 189.735H279.261C273.762 189.733 268.386 188.107 263.81 185.063C259.234 182.018 255.662 177.69 253.542 172.624C251.423 167.558 250.852 161.979 251.899 156.589C252.947 151.199 255.568 146.239 259.432 142.332C261.431 140.314 264.151 139.171 266.994 139.152C269.837 139.134 272.571 140.243 274.596 142.236L299.015 166.307C301.035 168.306 302.178 171.024 302.194 173.864C302.21 176.705 301.098 179.435 299.1 181.458Z" fill="#3F3D56"/>
<path d="M382.196 251.354L355.276 224.806C353.51 223.069 351.127 222.102 348.648 222.118C346.17 222.133 343.799 223.13 342.055 224.888C339.874 227.088 338.149 229.696 336.978 232.562C335.807 235.429 335.213 238.498 335.23 241.593C335.248 244.689 335.876 247.751 337.08 250.604C338.283 253.457 340.038 256.045 342.244 258.22C344.45 260.396 347.064 262.116 349.936 263.282C352.808 264.448 355.882 265.037 358.983 265.016C362.083 264.995 365.149 264.364 368.005 263.16C370.861 261.955 373.451 260.2 375.627 257.995L382.196 251.354Z" fill="#BF1A33"/>
<path d="M302.082 172.349L275.161 145.802C273.395 144.065 271.012 143.098 268.534 143.113C266.055 143.129 263.684 144.125 261.941 145.884C259.76 148.084 258.034 150.691 256.863 153.558C255.692 156.424 255.098 159.493 255.116 162.589C255.133 165.684 255.762 168.746 256.965 171.599C258.168 174.452 259.923 177.04 262.129 179.216C264.335 181.391 266.949 183.111 269.821 184.277C272.693 185.443 275.767 186.033 278.868 186.012C281.968 185.991 285.034 185.36 287.89 184.155C290.746 182.95 293.336 181.195 295.513 178.99L302.082 172.349Z" fill="#BF1A33"/>
<path d="M352.614 267.889L351.97 269.581C348.946 268.435 346.015 267.286 343.177 266.133C292.902 245.65 268.902 221.675 252.848 176.168L252.837 176.158C252.076 174.016 251.336 171.825 250.617 169.583L252.312 169.037C252.878 171.193 253.706 173.271 254.778 175.226C255.658 177.721 256.562 180.152 257.491 182.518C272.58 220.926 294.833 242.876 337.493 261.411C339.638 262.343 341.836 263.267 344.088 264.184C346.703 265.885 349.585 267.138 352.614 267.889Z" fill="#3F3D56"/>
<path d="M275.65 189.927L274.143 191.451L329.841 246.379L331.349 244.855L275.65 189.927Z" fill="#3F3D56"/>
<path d="M237.556 203.78L237.584 168.592L216.868 170.441L224.179 192.634L197.64 232.802C195.98 233.174 194.465 234.02 193.279 235.237C192.092 236.454 191.286 237.989 190.959 239.655C190.631 241.322 190.796 243.047 191.434 244.621C192.071 246.196 193.154 247.551 194.55 248.521C195.945 249.492 197.594 250.036 199.294 250.088C200.994 250.139 202.672 249.696 204.124 248.811C205.576 247.927 206.739 246.639 207.471 245.106C208.202 243.574 208.472 241.861 208.246 240.178L237.556 203.78Z" fill="#FFB6B6"/>
</svg>
