<svg width="157" height="44" viewBox="0 0 157 44" fill="none" xmlns="http://www.w3.org/2000/svg">
<rect x="17.7766" y="6.94524" width="11.484" height="35.5533" rx="5.74201" transform="rotate(30 17.7766 6.94524)" fill="#CC1C37"/>
<rect x="35.4746" y="3.46095" width="11.484" height="39.4862" rx="5.74201" transform="rotate(30 35.4746 3.46095)" fill="#C5C832"/>
<rect x="53.3301" width="11.484" height="43.419" rx="5.74201" transform="rotate(30 53.3301 0)" fill="#3296C8"/>
<path d="M63 15.8474C63 15.2633 63.1898 14.7731 63.5693 14.3768C63.9699 13.9596 64.4655 13.751 65.0559 13.751H82.325C82.9154 13.751 83.4215 13.9491 83.8432 14.3455C84.2438 14.7627 84.4441 15.2633 84.4441 15.8474C84.4441 16.2229 84.3598 16.5671 84.1911 16.88L75.0821 32.0243C74.323 33.0465 73.3636 33.2655 72.2039 32.6814C71.7189 32.4102 71.3816 31.993 71.1918 31.4298C71.0231 30.8666 71.0969 30.3451 71.4132 29.8653L78.5929 17.9438H67.9973C67.4913 17.9647 67.2382 18.2254 67.2382 18.7261V22.2306C67.1117 23.4822 66.4159 24.1601 65.1507 24.2644C64.5814 24.2644 64.0754 24.0767 63.6326 23.7012C63.2109 23.3048 63 22.8146 63 22.2306V15.8474Z" fill="#110000"/>
<path d="M95.4192 17.9438C94.618 17.9855 93.9432 18.288 93.395 18.8512C92.8679 19.4145 92.4883 20.0611 92.2564 20.7912C92.0245 21.5005 91.9085 22.2306 91.9085 22.9815C91.9085 23.7325 92.0139 24.473 92.2248 25.2031C92.4567 25.9332 92.8468 26.5799 93.395 27.1431C93.9432 27.6854 94.618 27.9775 95.4192 28.0192H105.857C107.185 28.1444 107.913 28.864 108.039 30.1782C108.018 30.7623 107.797 31.2525 107.375 31.6488C106.953 32.0243 106.447 32.2121 105.857 32.2121H94.3122C92.8363 32.1286 91.6238 31.5758 90.675 30.5537C89.7261 29.5107 89.0408 28.3321 88.6191 27.0179C88.2185 25.7037 88.0182 24.3583 88.0182 22.9815C88.0182 21.9594 88.1341 20.9477 88.3661 19.9464C88.598 18.9451 88.9565 17.996 89.4415 17.099C89.9475 16.1812 90.6117 15.3989 91.4341 14.7522C92.2775 14.1056 93.2369 13.7718 94.3122 13.751H105.857C107.185 13.8761 107.913 14.5958 108.039 15.91C108.039 16.4941 107.818 16.9843 107.375 17.3806C106.953 17.7561 106.447 17.9438 105.857 17.9438H95.4192Z" fill="#110000"/>
<path d="M118.065 27.3621C118.065 26.778 118.266 26.2878 118.666 25.8915C119.088 25.4743 119.594 25.2657 120.184 25.2657H125.024L124.201 22.9502C123.864 22.095 123.526 21.2919 123.189 20.5409C122.873 19.7691 122.504 19.0703 122.082 18.4445C121.703 17.8187 121.27 17.4849 120.785 17.4432C120.279 17.4849 119.826 17.8187 119.425 18.4445C119.025 19.0703 118.656 19.7691 118.318 20.5409C118.002 21.2919 117.675 22.095 117.338 22.9502L114.333 31.0856C114.122 31.5237 113.848 31.8887 113.511 32.1808C113.194 32.452 112.71 32.5875 112.056 32.5875C111.444 32.5875 110.938 32.3789 110.538 31.9617C110.158 31.5445 109.989 31.0439 110.032 30.4598C110.053 30.1886 110.116 29.9383 110.221 29.7089L113.701 20.8225C114.67 18.4862 115.64 16.5984 116.61 15.159C117.559 13.7405 118.951 13.0209 120.785 13C122.599 13.0209 123.98 13.7405 124.929 15.159C125.899 16.5566 126.869 18.4445 127.838 20.8225L131.318 29.7089C131.423 29.9383 131.486 30.1886 131.507 30.4598C131.55 31.0439 131.37 31.5445 130.97 31.9617C130.59 32.3789 130.095 32.5875 129.483 32.5875C128.787 32.5875 128.271 32.452 127.933 32.1808C127.617 31.8887 127.354 31.5237 127.143 31.0856L126.542 29.4585H120.184C119.594 29.4585 119.098 29.2499 118.698 28.8327C118.276 28.4364 118.065 27.9462 118.065 27.3621Z" fill="#110000"/>
<path d="M138.94 30.6163C138.814 31.8679 138.118 32.5458 136.853 32.6501C136.262 32.6501 135.746 32.4624 135.303 32.0869C134.881 31.6906 134.67 31.2004 134.67 30.6163V15.7848C134.691 15.2007 134.913 14.721 135.334 14.3455C135.756 13.9491 136.262 13.751 136.853 13.751H150.105C150.231 13.751 150.358 13.7614 150.485 13.7823H150.674C152.15 13.824 153.363 14.1577 154.312 14.7835C155.26 15.4093 155.946 16.129 156.367 16.9425C156.789 17.7352 157 18.5383 157 19.3519C157 20.1863 156.789 21.0102 156.367 21.8238C155.967 22.6165 155.282 23.3257 154.312 23.9515C153.363 24.5773 152.15 24.9111 150.674 24.9528H145.108C145.276 25.9958 145.624 26.7676 146.151 27.2682C146.657 27.7689 147.301 28.0192 148.081 28.0192H154.913C155.503 28.0401 155.988 28.2591 156.367 28.6763C156.768 29.0935 156.968 29.5941 156.968 30.1782C156.947 30.7414 156.736 31.2212 156.336 31.6176C155.956 31.993 155.482 32.1912 154.913 32.2121H147.511C145.951 32.2329 144.538 31.628 143.273 30.3972C142.008 29.1665 141.238 27.7063 140.964 26.0166C140.585 24.1392 140.395 23.0858 140.395 22.8564C140.395 22.2723 140.595 21.7821 140.996 21.3857C141.418 20.9685 141.924 20.7599 142.514 20.7599H150.864C151.265 20.7391 151.592 20.6556 151.845 20.5096C152.119 20.3427 152.319 20.1654 152.445 19.9777C152.572 19.7691 152.635 19.5605 152.635 19.3519C152.635 19.1433 152.572 18.9451 152.445 18.7574C152.319 18.5488 152.119 18.3715 151.845 18.2254C151.592 18.0586 151.265 17.9647 150.864 17.9438H139.762C139.214 17.9647 138.94 18.2359 138.94 18.7574V30.6163Z" fill="#110000"/>
</svg>
