<svg width="122" height="34" viewBox="0 0 122 34" fill="none" xmlns="http://www.w3.org/2000/svg">
<rect x="13.8137" y="5.39697" width="8.92389" height="27.6274" rx="4.46194" transform="rotate(30 13.8137 5.39697)" fill="#F0F0F0"/>
<rect x="27.5662" y="2.68945" width="8.92389" height="30.6835" rx="4.46194" transform="rotate(30 27.5662 2.68945)" fill="#F0F0F0"/>
<rect x="41.4412" width="8.92389" height="33.7396" rx="4.46194" transform="rotate(30 41.4412 0)" fill="#F0F0F0"/>
<path d="M48.9553 12.3147C48.9553 11.8608 49.1028 11.4799 49.3977 11.1719C49.709 10.8477 50.0941 10.6856 50.5529 10.6856H63.9722C64.431 10.6856 64.8243 10.8396 65.152 11.1476C65.4633 11.4718 65.6189 11.8608 65.6189 12.3147C65.6189 12.6064 65.5534 12.8739 65.4223 13.1171L58.344 24.8853C57.7541 25.6796 57.0086 25.8498 56.1074 25.3959C55.7305 25.1852 55.4684 24.861 55.3209 24.4233C55.1898 23.9856 55.2472 23.5804 55.493 23.2076L61.0721 13.9437H52.8386C52.4453 13.96 52.2487 14.1626 52.2487 14.5516V17.2748C52.1504 18.2474 51.6097 18.7742 50.6266 18.8553C50.1842 18.8553 49.791 18.7094 49.4469 18.4176C49.1192 18.1096 48.9553 17.7287 48.9553 17.2748V12.3147Z" fill="#F0F0F0"/>
<path d="M74.1473 13.9437C73.5247 13.9762 73.0004 14.2112 72.5744 14.6489C72.1648 15.0865 71.8698 15.589 71.6896 16.1564C71.5094 16.7075 71.4192 17.2748 71.4192 17.8584C71.4192 18.4419 71.5012 19.0174 71.665 19.5847C71.8452 20.1521 72.1484 20.6546 72.5744 21.0922C73.0004 21.5137 73.5247 21.7406 74.1473 21.773H82.258C83.2902 21.8703 83.8555 22.4295 83.9538 23.4507C83.9374 23.9046 83.7654 24.2855 83.4377 24.5935C83.11 24.8853 82.7167 25.0312 82.258 25.0312H73.2871C72.1402 24.9663 71.198 24.5368 70.4607 23.7425C69.7234 22.932 69.1909 22.0162 68.8632 20.995C68.5519 19.9737 68.3962 18.9282 68.3962 17.8584C68.3962 17.0641 68.4863 16.2779 68.6665 15.4999C68.8468 14.7218 69.1253 13.9843 69.5022 13.2873C69.8954 12.574 70.4116 11.9662 71.0506 11.4637C71.706 10.9612 72.4515 10.7018 73.2871 10.6856H82.258C83.2902 10.7829 83.8555 11.3421 83.9538 12.3633C83.9538 12.8172 83.7818 13.1981 83.4377 13.5061C83.11 13.7979 82.7167 13.9437 82.258 13.9437H74.1473Z" fill="#F0F0F0"/>
<path d="M91.7449 21.2624C91.7449 20.8085 91.9006 20.4276 92.2119 20.1196C92.5396 19.7954 92.9328 19.6333 93.3916 19.6333H97.152L96.513 17.8341C96.2508 17.1695 95.9886 16.5454 95.7265 15.9619C95.4807 15.3621 95.194 14.8191 94.8663 14.3328C94.5713 13.8465 94.2354 13.5871 93.8586 13.5547C93.4653 13.5871 93.1131 13.8465 92.8017 14.3328C92.4904 14.8191 92.2037 15.3621 91.9415 15.9619C91.6957 16.5454 91.4418 17.1695 91.1796 17.8341L88.8447 24.1558C88.6809 24.4962 88.4679 24.7799 88.2057 25.0069C87.96 25.2176 87.5831 25.3229 87.0752 25.3229C86.6 25.3229 86.2068 25.1608 85.8954 24.8367C85.6005 24.5125 85.4694 24.1234 85.5022 23.6696C85.5186 23.4588 85.5677 23.2643 85.6497 23.086L88.3532 16.1807C89.1069 14.3652 89.8606 12.8982 90.6143 11.7798C91.3517 10.6775 92.4331 10.1183 93.8586 10.1021C95.2677 10.1183 96.3409 10.6775 97.0782 11.7798C97.832 12.8658 98.5857 14.3328 99.3394 16.1807L102.043 23.086C102.125 23.2643 102.174 23.4588 102.19 23.6696C102.223 24.1234 102.084 24.5125 101.773 24.8367C101.478 25.1608 101.093 25.3229 100.617 25.3229C100.077 25.3229 99.6753 25.2176 99.4131 25.0069C99.1673 24.7799 98.9625 24.4962 98.7987 24.1558L98.3317 22.8915H93.3916C92.9328 22.8915 92.5478 22.7294 92.2365 22.4052C91.9088 22.0972 91.7449 21.7163 91.7449 21.2624Z" fill="#F0F0F0"/>
<path d="M107.966 23.7911C107.868 24.7637 107.327 25.2905 106.344 25.3716C105.885 25.3716 105.484 25.2257 105.14 24.9339C104.812 24.6259 104.648 24.245 104.648 23.7911V12.266C104.665 11.8122 104.837 11.4393 105.164 11.1476C105.492 10.8396 105.885 10.6856 106.344 10.6856H116.642C116.74 10.6856 116.839 10.6937 116.937 10.7099H117.084C118.231 10.7423 119.173 11.0017 119.911 11.488C120.648 11.9743 121.181 12.5335 121.508 13.1657C121.836 13.7816 122 14.4057 122 15.0379C122 15.6863 121.836 16.3266 121.508 16.9587C121.197 17.5747 120.665 18.1258 119.911 18.6121C119.173 19.0984 118.231 19.3578 117.084 19.3902H112.759C112.89 20.2007 113.16 20.8004 113.57 21.1895C113.963 21.5785 114.463 21.773 115.069 21.773H120.378C120.837 21.7892 121.213 21.9594 121.508 22.2836C121.82 22.6078 121.975 22.9969 121.975 23.4507C121.959 23.8884 121.795 24.2612 121.484 24.5692C121.189 24.861 120.82 25.015 120.378 25.0312H114.627C113.414 25.0474 112.316 24.5773 111.333 23.6209C110.35 22.6646 109.752 21.5299 109.539 20.2169C109.244 18.758 109.097 17.9394 109.097 17.7611C109.097 17.3073 109.252 16.9263 109.564 16.6183C109.891 16.2941 110.285 16.1321 110.743 16.1321H117.232C117.543 16.1158 117.797 16.051 117.994 15.9375C118.207 15.8079 118.362 15.6701 118.461 15.5242C118.559 15.3621 118.608 15.2 118.608 15.0379C118.608 14.8758 118.559 14.7218 118.461 14.5759C118.362 14.4138 118.207 14.276 117.994 14.1626C117.797 14.0329 117.543 13.96 117.232 13.9437H108.605C108.179 13.96 107.966 14.1707 107.966 14.5759V23.7911Z" fill="#F0F0F0"/>
</svg>
